<svg xmlns="http://www.w3.org/2000/svg" xmlns:xlink="http://www.w3.org/1999/xlink" width="630" height="499" viewBox="0 0 630 499">
  <defs>
    <clipPath id="clip-path">
      <rect id="Rectangle_1" data-name="Rectangle 1" width="630" height="499" fill="#fff"/>
    </clipPath>
  </defs>
  <g id="_1" data-name="1" clip-path="url(#clip-path)">
    <path id="Path_1" data-name="Path 1" d="M169.056,49.638a30.984,30.984,0,0,0-2.028-7.763,3.51,3.51,0,0,0-1.786-2.2,3.681,3.681,0,0,0-1.773-.02l-9.1,1.392a3.491,3.491,0,0,0-2.077.807c-1.185,1.247-.018,3.254-.054,4.974-.041,1.934-1.76,3.5-3.623,4.023a13.7,13.7,0,0,1-5.757-.071L130.129,48.8a20.986,20.986,0,0,0,9.629-6.424c1.674-1.984,2.565-5.688.145-6.627a5.944,5.944,0,0,0-2.211-.177c-5.766.045-10.3-4.769-15.7-6.8A17.362,17.362,0,0,0,102.451,34.6l6.78.327a3.01,3.01,0,0,1,1.806.482c1.486,1.221-.362,3.565-.152,5.476.272,2.483,3.569,3.014,6.055,3.265s5.639,2.271,4.444,4.464c-12.494,4.3-25.208-8.411-38.33-6.846-3.321.4-6.457,1.7-9.7,2.521C53.549,49.3,33.072,35.93,12.839,38.762A76.845,76.845,0,0,0-.371,42.245C-3.125,43.149-6,44.126-8,46.223s-2.762,5.682-.867,7.875A44.332,44.332,0,0,1-24.4,52.621a8.7,8.7,0,0,1,3.289,3.221,8.7,8.7,0,0,1,1.185,4.448,92.173,92.173,0,0,0-23.611,7.2A39.765,39.765,0,0,0-38.649,74l-10.327,6.634a5.893,5.893,0,0,1,3.264,8.607c3.618-1.609,5.86-5.772,9.729-6.616,2.534-.553,5.113.484,7.517,1.457S-23.42,86-20.931,85.268s4.325-3.958,2.743-6.014a128.795,128.795,0,0,1,32.711-5.11,4.1,4.1,0,0,1,2.477.47c1.442,1,1.063,3.161.985,4.914s1.289,4.058,2.856,3.267c-1.844,1.6-.268,4.608,1.5,6.289s3.9,4,2.818,6.187c-.283.571-.762,1.027-1.034,1.6-.8,1.7.472,3.682,1.975,4.811s3.345,1.918,4.389,3.481.57,4.3-1.3,4.518l-5.308-6.739A13.819,13.819,0,0,0,20.3,109.74c5.628,4.6,6.475,13.965,1.763,19.5-2.408,2.828-5.832,4.547-8.821,6.754s-5.754,5.348-5.747,9.062c.013,6.418-.511,12.38,1.894,18.33a282.361,282.361,0,0,0,15.331,31.98c1.517,2.712,3.477,5.685,6.549,6.152q-5.824-14.178-10.486-28.8c2.024.008,4.363.169,5.55,1.809.983,1.357.771,3.2,1.077,4.851a15.027,15.027,0,0,0,1.917,4.506L47.87,216.913c1.537,2.738,3.3,5.677,6.238,6.785,1.878.709,4.051.576,5.78,1.6,1.355.8,2.268,2.22,3.649,2.974,3.906,2.13,9.338-1.956,12.988.588a36.606,36.606,0,0,1,2.669,2.715c3.371,2.919,8.9.967,12.793,3.144,2.508,1.4,3.808,4.21,5.146,6.754,3.351,6.372,8.774,12.614,15.955,13.121,2.256.159,4.561-.268,6.766.233s4.376,2.426,4.022,4.66c-.607,3.829,1.285,8.021.777,11.865-.926,7-10.857,10.077-11.71,17.086-.187,1.535.106,3.119-.26,4.622-.448,1.841-1.831,3.34-2.322,5.17-.932,3.469,1.554,6.92,4.284,9.254s5.986,4.345,7.479,7.611c1.577,3.453.8,7.478,1.315,11.239,1.121,8.21,8.213,14.3,15.512,18.221,2.224,1.2,4.612,2.354,6.051,4.428,1.879,2.708,1.692,6.277,2.319,9.512,1.536,7.922,8.207,14.45,8.4,22.518.135,5.735-3.053,10.937-4.958,16.348a38.119,38.119,0,0,0,3.114,31.618c1.424,2.406,3.128,4.673,4.136,7.281,1.8,4.653,1.215,9.943,2.873,14.647,2.192,6.221,8.216,11.359,7.64,17.929,2.735,5.678,8.774,8.468,14.846,10.158l10.883,3.03a13.988,13.988,0,0,0,6.384.744c2.122-.42,4.147-2.182,4.092-4.344-5.337-1.2-10.845-2.483-15.245-5.735s-7.413-9.042-5.744-14.252c.774-2.416,2.421-5.205.856-7.2-.9-1.143-2.536-1.441-3.547-2.484-1.577-1.627-1.035-4.359.1-6.32s2.772-3.714,3.229-5.932a6.19,6.19,0,0,0-2.9-6.44,15.381,15.381,0,0,0,5.386-3.456c1.417-1.618,2.071-4.112.957-5.95,3.309.419,7.216.625,9.388-1.906,1.735-2.022,1.616-5.043.931-7.617s-1.844-5.074-1.88-7.737a141.1,141.1,0,0,0,22.876-.775,14.836,14.836,0,0,0-6.955-8.71c3.438-.582,6.571-4.7,7.657-8.011s.809-6.922.138-10.344a5.54,5.54,0,0,1-.1-2.71,5.282,5.282,0,0,1,2.721-2.63l17.066-9.8a9.916,9.916,0,0,0,2.729-2.014c1.789-2.1,1.524-5.27.608-7.872s-2.382-5.048-2.735-7.783c-1.054-8.181,7.7-14.051,10.66-21.752a32.786,32.786,0,0,0,1.621-9.536c.241-3.468.259-7.5-2.4-9.732-2.553-2.142-6.542-1.664-9.213-3.657-2.45-1.827-3.295-5.376-5.971-6.852-2.43-1.34-5.476-.488-8.179-1.118-4.758-1.11-7.753-6.593-12.613-7.1-2.742-.287-5.845,1.054-8.092-.543-1.98-1.407-2.06-4.235-2.437-6.634a18.527,18.527,0,0,0-14.955-15c-2.827-.453-5.9-.281-8.31-1.835-2.435-1.573-3.552-4.518-5.465-6.7-3.083-3.511-7.939-4.758-12.487-5.827l-18.5-4.35c-3.284-.772-7.518-1.181-9.281,1.7a13.3,13.3,0,0,0-1.1,3.452,10.692,10.692,0,0,1-10.055,7.568,11.891,11.891,0,0,0-7.013-5.425c-1.876-.523-3.884-.581-5.673-1.35a7.969,7.969,0,0,1-3.459-11.055,9.916,9.916,0,0,0-1.695-11.931c-3.146-2.825-7.7-3.507-11.917-3.225-1.105-2.41.743-5.13,2.734-6.882s4.409-3.475,4.842-6.091c.682-4.115-4.57-7.241-8.557-6.014s-6.532,5.1-8.215,8.917a26.254,26.254,0,0,1-3.308,6.343c-1.523,1.847-3.975,3.169-6.294,2.577-3.283-.839-4.551-4.74-5.278-8.049-.975-4.441-1.955-8.943-1.751-13.484s1.736-9.2,5.085-12.28c5.458-5.01,13.831-4.518,21.2-3.719-1.74-1.961-1.31-5.265.552-7.11a8.086,8.086,0,0,1,7.327-1.8,10.1,10.1,0,0,1,5.677,3.394c2.093,2.551,2.688,6,4.271,8.893s5.139,5.367,8.051,3.813c2.515-1.342,2.914-4.829,2.288-7.61s-1.955-5.486-1.728-8.327c.432-5.422,6.054-8.686,11.014-10.919s10.64-5.235,11.426-10.618a9.676,9.676,0,0,1,.588-3.085,6.065,6.065,0,0,1,2.221-2.089c14.477-9.566,29.194-19.248,45.741-24.475.86-.272.961.03,1.839-.183,1.228-.71.414-2.672-.763-3.463s-2.751-1.4-3.05-2.783c-.219-1.019.381-2.02.537-3.05a3.808,3.808,0,0,0-5-3.859c-1.329-1.76,1.3-3.805,3.427-4.39a93.108,93.108,0,0,1,19.554-3.194,3.524,3.524,0,0,1,2.225.379c1.11.769.968,2.533.181,3.631a21.355,21.355,0,0,1-2.992,2.717,8.164,8.164,0,0,0-2.119,8.214c3.452,1.756,7.205,3.564,11.029,2.945s7.217-4.914,5.42-8.345c-1.674-3.194-6.7-3.915-7.565-7.416-1.013-4.1,4.791-7.745,3.484-11.76-.573-1.759-2.326-2.794-3.671-4.064a11.023,11.023,0,0,1-2.413-12.226,13.916,13.916,0,0,1-12.2-3.818c-2.918-2.945-5.247-7.591-9.391-7.459-3.8.121-7.079,4.557-10.635,3.2-.875-.333-1.8-1.011-2.645-.614a2.186,2.186,0,0,0-.987,1.638c-.9,4.32.651,9.242-1.7,12.975-2.563,4.062-8.49,4.625-11.6,8.289-1.686,1.989-2.339,4.668-3.889,6.765s-4.84,3.43-6.7,1.6a9.231,9.231,0,0,0-2.508-11.228,24.632,24.632,0,0,0-5.542-2.695,32.855,32.855,0,0,1-6.19-3.45,6.1,6.1,0,0,1-2.273-2.431,5.539,5.539,0,0,1,.156-3.845,15.722,15.722,0,0,1,12.512-10.37c2.477-.337,5.359-.218,7-2.105.867-1,1.322-2.508,2.581-2.913a3.808,3.808,0,0,1,2.383.293l9.244,3.254a6.491,6.491,0,0,0,3.294.545,2.231,2.231,0,0,0,1.93-2.346c-.295-1.535-2.657-2.272-2.443-3.82a2.559,2.559,0,0,1,.774-1.3,33.053,33.053,0,0,1,26.214-10.35c1.166,1.916-.679,4.185-2.214,5.821s-2.77,4.558-.913,5.818a5.094,5.094,0,0,0,2.462.554,21.5,21.5,0,0,1,6.551,1.987q4.792,2.085,9.4,4.563c-.272-2.025-.531-4.159.237-6.052s2.95-3.379,4.855-2.641c1.837.711,2.779,3.142,4.736,3.365,2.61.3,3.64-3.558,2.55-5.948s-3.249-4.391-3.429-7.012c-.122-1.768.551-3.961-.861-5.031a3.85,3.85,0,0,0-1.667-.584l-35.266-6.489c-2.094-.385-5.12-.09-5.212,2.037-.052,1.187,1.008,2.362.539,3.454-.5,1.165-2.149,1.059-3.349,1.471-1.861.639-2.795,2.849-2.617,4.809a13.394,13.394,0,0,0,2.209,5.42C174.823,50.773,171.35,50.6,169.056,49.638Z" fill="#2c2c2c"/>
    <path id="Path_2" data-name="Path 2" d="M142.266,19.948A11.42,11.42,0,0,0,129.722,23.7c-.581.765-1.068,1.818-.582,2.646.7,1.187,2.472.718,3.782.293A9.52,9.52,0,0,1,138.9,26.5c1.229.422,2.329,1.168,3.564,1.574a3.588,3.588,0,0,0,3.659-.535,4.759,4.759,0,0,0,.9-3.418,2.743,2.743,0,0,0-.7-2.259,3.592,3.592,0,0,0-1.62-.479,5.579,5.579,0,0,1-3.266-1.908" fill="#2c2c2c"/>
    <path id="Path_3" data-name="Path 3" d="M154.982,16.409a2.9,2.9,0,0,0-2.807,4.091,11.772,11.772,0,0,0,4.694.306,4.012,4.012,0,0,0,3.282-3.008,7.555,7.555,0,0,1-5.349-1.021" fill="#2c2c2c"/>
    <path id="Path_4" data-name="Path 4" d="M197.647,10.5a54.014,54.014,0,0,0-12.039,4.089,9.045,9.045,0,0,1,5.777,9.084,4.727,4.727,0,0,0,.055,2.246c.442,1.072,1.723,1.474,2.849,1.749a18.792,18.792,0,0,0,6.251.8,6.366,6.366,0,0,0,5.173-3.161,22.712,22.712,0,0,1,1.076-2.543c2.7-4.111,10.721.86,13.62-3.114,1.021-1.4.927-3.507,2.259-4.616a5.069,5.069,0,0,1,2.322-.886,163.076,163.076,0,0,1,17.639-2.512c2.805-.244,6.462-1.251,6.485-4.067a48.865,48.865,0,0,0-31.167,4.192c-3.474,1.74-8.069,5.4-11.416,3.093-1.253-.864-1.191-3.189-2.916-4.161C201.852,9.694,199.518,10.1,197.647,10.5Z" fill="#2c2c2c"/>
    <path id="Path_5" data-name="Path 5" d="M232.2,16.958l4.961.953a6.427,6.427,0,0,0-6.689,6.965c4.645,1.552,9.709.042,14.6.248s10.586,3.7,9.751,8.526c-.253,1.459-1.1,2.917-.657,4.331.307.991,1.181,1.695,1.675,2.608,1.028,1.9.206,4.309-1.092,6.038s-3.044,3.109-4.184,4.947c-2.835,4.571-1.225,10.48.464,15.587a13.734,13.734,0,0,0,2.643,5.277c2.5,2.66,6.579,2.891,10.231,2.944,2.657.039,5.7-.092,7.383-2.151,2.194-2.688.66-6.882,2.1-10.037,1.312-2.865,4.655-4.094,7.684-4.966,5.548-1.6,11.2-2.955,16.448-5.367,6.513-3,12.6-7.664,19.76-8.049,2.008-.108,4.067.129,6-.421s3.773-2.223,3.626-4.229c-.125-1.714-1.575-2.972-2.708-4.264s-2.023-3.279-.982-4.645l18.765-3.5c-1.33-3.625-2.366-8.4.691-10.757,1.1-.851,2.579-1.191,3.518-2.22,1.6-1.754.8-4.775-1.052-6.267s-4.345-1.838-6.711-2.034c-8.228-.683-16.5-.232-24.748.22l-48.345,2.65c-3.245.178-6.99-.094-9.966,1.013-2.518.937-4.309,2.657-7.19,3.261C242.87,14.728,237.017,13.973,232.2,16.958Z" fill="#2c2c2c"/>
    <path id="Path_6" data-name="Path 6" d="M321.068,56.162a2,2,0,0,0-1.444.327,1.829,1.829,0,0,0-.47,1.113,7.356,7.356,0,0,0,1.068,5.262,5.156,5.156,0,0,0,4.718,2.261c2.233-.285,3.879-2.19,5.933-3.12,3.165-1.432,16.605-3.663,7.308-8.686-3.2-1.731-5.275-.2-7.8.937A17.75,17.75,0,0,1,321.068,56.162Z" fill="#2c2c2c"/>
    <path id="Path_7" data-name="Path 7" d="M402.5,14.122a5.307,5.307,0,0,0-2.583,2.248,2.268,2.268,0,0,0,.851,3.009,3.386,3.386,0,0,0,1.266.2l4.415.132c1.875.056,4.217.455,4.721,2.262.375,1.342-.463,3.066.548,4.025a2.843,2.843,0,0,0,1.5.586,10.236,10.236,0,0,0,4.448.144c3.212-.861,1.524-2.822,2.536-4.567,1.547-2.67,1.28-1.054,4.007-2.584,2.014-1.13,4.616-3.181,2.935-6.061C424.224,8.506,406.816,11.97,402.5,14.122Z" fill="#2c2c2c"/>
    <path id="Path_8" data-name="Path 8" d="M489.629,11.6l-2.564.342a103.251,103.251,0,0,0-17.16,3.285,28.561,28.561,0,0,0,7.516,1.844,23.1,23.1,0,0,1,4.209.6c2.459.732,4.937,2.622,7.312,1.654,1.473-.6,1.954-2.134,3.174-2.946.843-.561,4.038-1.469,4.395-2.036C499.4,9.766,491.849,11.309,489.629,11.6Z" fill="#2c2c2c"/>
    <path id="Path_9" data-name="Path 9" d="M500.884,23.252a48.108,48.108,0,0,0-9.459,6.926c-1.2,1.132-2.434,2.54-2.325,4.189.145,2.192,2.48,3.463,4.5,4.319l8.194,3.469c.994-1.4.085-3.335-.943-4.711s-2.248-2.969-1.794-4.626c.518-1.89,2.823-2.535,4.757-2.86,3.149-.531,11.646-.488,10.625-5.564C513.239,18.414,504.046,21.485,500.884,23.252Z" fill="#2c2c2c"/>
    <path id="Path_10" data-name="Path 10" d="M499.237,361.693a7.813,7.813,0,0,0,.495,6.89,6.981,6.981,0,0,0,7.166,2.475,12.9,12.9,0,0,0,6.653-4.277,22.891,22.891,0,0,0,3.827-5.868,45.8,45.8,0,0,0,2.837-10.377l2.544-13.356c.568-2.985.546-12.137-4.941-9.155-1.5.814-4.969,7.246-6.54,9.069-2.832,3.287-3.206,6.477-4.7,10.459C504.714,352.54,500.962,356.7,499.237,361.693Z" fill="#2c2c2c"/>
    <path id="Path_11" data-name="Path 11" d="M427.557,169.154a10.531,10.531,0,0,1,.074,5.3c-.576,1.691-2.387,3.1-4.1,2.586-1.327-.4-2.094-1.736-3.036-2.754-5.241-5.657-17.065-2.381-20.3-9.38-1.322-2.857-.424-6.279-1.325-9.294a8.273,8.273,0,0,0-8.378-5.691,17.211,17.211,0,0,0-4.821,1.439,121.6,121.6,0,0,1-31.943,7.989,26.237,26.237,0,0,0-6.138,1.116c-4.5,1.632-7.576,5.8-9.764,10.061s-3.8,8.866-6.738,12.648c-3.084,3.975-7.4,6.759-11.435,9.769a11.678,11.678,0,0,0-3.773,3.953,12.364,12.364,0,0,0-.756,5.875l.823,24.218c.106,3.115.239,6.341,1.634,9.129,1.741,3.481,5.181,5.761,7.567,8.836a17.308,17.308,0,0,1,3.591,11.053c-.051,1.6-.21,3.5,1.039,4.506a4.566,4.566,0,0,0,2.553.735l32.765,2.681c5.764.472,12.151,1.247,15.914,5.638,1.776,2.072,3.2,5.052,5.922,5.274a22.1,22.1,0,0,0,3.469-.476c2.945-.233,5.531,2,7.164,4.462a19.8,19.8,0,0,1,3.18,12.7c-.268,2.807-1.138,5.536-1.326,8.35-.714,10.708,8.364,20.01,8.54,30.74.1,6.311-2.893,12.207-5.815,17.8,4.715,7.142.855,16.652,2.732,25,1.78,7.921,8.386,14.122,10.032,22.072.753,3.639.8,8.118,4.006,9.993a9.144,9.144,0,0,0,4.534.908,59.8,59.8,0,0,0,27.219-6.2c3.969-1.97,8.082-4.909,8.775-9.285.559-3.529-1.231-7.476.591-10.549,2.146-3.623,7.646-3.336,10.8-6.121,5.124-4.518,1.128-13.136,3.2-19.644,1.866-5.85,8.29-8.958,11.474-14.208a25.221,25.221,0,0,0,2.667-7.226,103.012,103.012,0,0,0,2.713-18.428,110.391,110.391,0,0,1,.834-11.288c3.433-21.326,24.518-35.606,31.364-56.094.654-1.956.961-4.562-.78-5.669a4.983,4.983,0,0,0-3.315-.347l-15.1,1.9c-1.876.236-3.864.457-5.587-.322s-2.958-2.958-2.044-4.613c2.565-4.646-2.711-10.518-5.056-15.279a225.462,225.462,0,0,0-22.453-36.41,3.7,3.7,0,0,1-.985-2.137l4.287.143c-1.447-5.192-3.835-10.873-8.88-12.772-2.842-1.07-5.99-.7-9.023-.535C445.467,171.795,436.155,170.484,427.557,169.154Z" fill="#2c2c2c"/>
    <path id="Path_12" data-name="Path 12" d="M455.509,52.161c2.273,2.414,4.821,4.973,8.11,5.393,5.809.743,9.985-5.263,12.645-10.48a5.121,5.121,0,0,0,5.344,4.738,10.55,10.55,0,0,0,4.02-1.571,79.2,79.2,0,0,1,37.517-9.7,4.051,4.051,0,0,1,3.094-4.454c2.667-.529,5.069,1.777,6.356,4.171s2.088,5.17,4.132,6.963,6,1.714,6.808-.881c.775-2.492-1.821-4.617-3.978-6.086s-4.431-4.188-2.979-6.356c11.021-2.439,22.109-4.887,33.386-5.372a13.983,13.983,0,0,0,5.62-.968c1.719-.844,3.086-2.759,2.624-4.618a12.727,12.727,0,0,1-13.281-5.009c15.647-1.291,32.29-2.391,46.157,4.97,1.664,3.572-6.817,6.544-4.548,9.765.723,1.028,2.174,1.148,3.43,1.171,9.636.179,19.328.354,28.856-1.1,3.482-.532,7-1.282,10.494-.851,5.822.718,10.8,4.6,16.53,5.869,2.332.515,4.946.533,6.911-.823s2.81-4.443,1.2-6.206c5.393-5.285,14.344-3.975,21.459-1.445s13.856,6.611,21.386,7.175c5.4.4,10.876-1.048,16.211-.125,3.354.58,6.474,2.072,9.752,2.988,6.2,1.733,12.755,1.367,19.19,1.451a134.488,134.488,0,0,1,47.919,9.521,14.257,14.257,0,0,1,5.327,3.147c1.419,1.52,2.143,3.882,1.189,5.73l-15.766-2.3c1.486,2.924,5.328,3.422,8.449,4.431s6.357,4.455,4.482,7.145c-3.382-1.076-6.446,2.3-8.154,5.414s-3.79,6.835-7.334,7.024c-3.173.17-7.011-2.532-9.079-.12a61.941,61.941,0,0,1,7.3,11.662c2.044,4.257,3.5,9.62.737,13.451a3.487,3.487,0,0,1-1.864,1.445c-2.255.571-3.721-2.188-5.339-3.861-2.038-2.107-5.121-2.7-7.881-3.692s-5.669-2.933-5.885-5.856c-.134-1.819.826-3.51,1.534-5.191a20.008,20.008,0,0,0,1.52-8.971,10.187,10.187,0,0,0-2.62-6.759c-1.772-1.724-4.832-2.271-6.735-.692-.888.737-1.6,1.916-2.753,1.96-2.037.078-3.6-3.474-5.24-2.261A5.571,5.571,0,0,1,761,75.719c-4.891,4.253-12.405,2.454-18.71,3.956a35.109,35.109,0,0,0-8.537,3.727,5.49,5.49,0,0,0-2.44,2.048c-.787,1.529.081,3.488,1.468,4.5a11.655,11.655,0,0,0,4.841,1.652c7.687,1.456,15.486,3.709,21.555,8.647s10.05,13.1,8.129,20.681l-15.16-14.483q.864,9.121.981,18.294a8.219,8.219,0,0,1-.481,3.519c-1.081,2.386-4.01,3.19-6.577,3.717a5.149,5.149,0,0,0-3.954,6.6c.912,2.972,3.186,5.289,5.268,7.6s4.131,4.933,4.4,8.03-2.064,6.588-5.166,6.372c-2.351-.163-4.1-2.268-5.1-4.4s-1.6-4.509-3.106-6.321c-4.561-5.485-14.806-3.135-18.892-8.982a9.233,9.233,0,0,0-1.911,8.792c1.9-1.189,4.5-.084,5.931,1.645s2.1,3.945,3.224,5.887c1.513,2.621,3.922,4.943,4.133,7.962a25.9,25.9,0,0,0,.058,3.424c.375,1.829,1.921,3.142,2.993,4.671,2.494,3.557,2.371,8.444.763,12.48s-4.5,7.408-7.356,10.678c-5,5.711-10.1,11.388-16.02,16.131-1.69,1.353-3.494,2.684-4.547,4.576s-1.107,4.548.511,5.987c-1.157.058-3.233.627-4.391.685a102.181,102.181,0,0,1-.265-13.964c-4.568-2.193-9.486,3.681-8.9,8.713s4.23,9.071,6.822,13.425c1.9,3.183,3.3,6.9,2.671,10.547s-3.892,7.018-7.584,6.7c-5.872-.512-8.328-8.941-14.143-9.9a2.37,2.37,0,0,0-1.53.152c-.863.473-1.013,1.628-1.062,2.611-.238,4.826-.444,9.844,1.441,14.294,2.756,6.509,9.877,11.976,8.383,18.885-8.047-3.74-12.23-12.762-14.13-21.429S672.4,236.056,669,227.862c-2.586,3.314-8.02.575-10.383-2.9-2.239-3.3-3.618-7.108-5.791-10.448s-5.5-6.331-9.483-6.515c-4.173-.192-7.793,2.671-10.976,5.377-2.618,2.225-5.3,4.538-6.835,7.614-2.227,4.475-1.644,9.752-1.752,14.749-.116,5.4-1.261,11.1-4.944,15.059s-10.48,5.333-14.543,1.768c-2.12-1.861-3.147-4.641-4.062-7.31a357.829,357.829,0,0,1-11-39.256c-.683,3.032-3.346,6.94-5.889,5.154a5.276,5.276,0,0,1-1.357-1.748c-4.744-8.041-13.531-12.863-22.409-15.755s-18.218-4.241-27-7.419a68.407,68.407,0,0,1-14.005-6.975,11.007,11.007,0,0,0-.673,11.265,8.975,8.975,0,0,0,10.126,4.238c1.95-.623,3.6-1.976,5.53-2.644s4.531-.34,5.376,1.523c.81,1.783-.414,3.941.193,5.8.925,2.836,5.2,3.055,6.7,5.636,1.113,1.92.2,4.47-1.392,6.02s-3.71,2.4-5.65,3.478c-6.294,3.5-10.771,9.474-16.272,14.123s-13.263,8.042-19.819,5.06c1.563-7.912-7.864-13.721-9.6-21.6-.571-2.593-.275-5.347-1.09-7.873-1.179-3.658-4.425-6.173-7.088-8.945a35.109,35.109,0,0,1-9.63-25.542c.144-3.255.742-6.563,0-9.736s-3.369-6.244-6.625-6.1c-7.436.328-16.8.881-20.705-5.457-1.392-2.262-2-5.575.015-7.308,1.42-1.223,3.517-1.108,5.382-.924l16.754,1.648c3.919.385,8.155.7,11.517-1.345s4.82-7.486,1.706-9.9c-2.275-1.76-6.351-1.665-7.012-4.465-.551-2.331,2.03-4.977.636-6.925-1-1.4-3.247-1.01-4.609.037s-2.349,2.58-3.873,3.373c-2.674,1.391-5.868.067-8.745-.833s-6.732-.976-8.127,1.695c-1.56,2.987,1.384,6.9-.165,9.895-2.047,3.958-8.98,1.705-11.855,5.109-3.3,3.906,2.245,9.731,1.132,14.722a9.171,9.171,0,0,1-9.03-.507,8.77,8.77,0,0,1-3.79-8.166c.276-2.245,1.446-4.536.662-6.658-.634-1.715-2.357-2.736-3.958-3.621l-16.281-9c-1.512,2.8.4,6.28,2.789,8.386s5.384,3.692,6.954,6.464a8.485,8.485,0,0,1-3.193,11.185,1.962,1.962,0,0,1-1.614.281,2.244,2.244,0,0,1-1.046-1.407c-2.873-7.351-7.186-14.6-14.082-18.438s-16.8-3.05-21.326,3.418c-1.074,1.537-1.794,3.288-2.73,4.912-4.971,8.63-15.628,12.717-25.584,12.45a5.079,5.079,0,0,1-2.791-.656c-1.609-1.111-1.537-3.469-1.29-5.409l1.045-8.232c.21-1.653.514-3.48,1.822-4.512,1.845-1.454,4.506-.536,6.855-.57a8.687,8.687,0,0,0,7.884-6.084,9.79,9.79,0,0,0-2.725-9.734c-1.077-1.012-2.522-2.282-1.953-3.645a3.011,3.011,0,0,1,2.112-1.422c4.22-1.225,8.678-1.546,12.827-2.992s8.172-4.4,9.155-8.685c.3-1.312.438-2.9,1.617-3.552a4.849,4.849,0,0,1,1.869-.382,9.093,9.093,0,0,0,7.8-9.478c1.988-1.389,4.774-.367,6.7,1.11s3.622,3.43,5.963,4.067c4.362,1.187,8.577-2.674,13.1-2.692,1.9-.008,3.868.664,5.657.02,1.813-.653,2.9-2.458,4.287-3.791s3.833-2.146,5.118-.71l-1.094-8.1A15.936,15.936,0,0,0,445.4,74.8l-14.141-4.777a3.075,3.075,0,0,1-1.323-.707c-1.028-1.107-.007-2.832.829-4.09,2-3.01,2.336-7.968-.953-9.467-2.245-1.023-4.821.2-6.976,1.406l-10.321,5.754c-.328,1.962,2.071,3.073,3.558,4.395a5.965,5.965,0,0,1-3.89,10.422,7.435,7.435,0,0,1,1.327,6.3l-6.944.5a3.011,3.011,0,0,1-2.253-.439c-.742-.66-.642-1.815-.814-2.794-.415-2.361-2.727-4.016-5.087-4.44a17.892,17.892,0,0,0-7.11.657,4.245,4.245,0,0,1-3.057-.071,3.053,3.053,0,0,1-1.209-1.526c-1.024-2.484-.067-5.4,1.578-7.527s3.9-3.676,5.921-5.444A34.5,34.5,0,0,0,404.8,47.035c3.823-1.6,7.781-3.778,11.6-5.379a35.509,35.509,0,0,1,19.085-3.7l12.946.247c3.833.073,7.77.167,11.315,1.628s6.658,4.621,6.9,8.447a2.594,2.594,0,0,1-.83,2.37,3.061,3.061,0,0,1-1.637.369C460.608,51.145,459.084,52.036,455.509,52.161Z" fill="#2c2c2c"/>
    <path id="Path_13" data-name="Path 13" d="M352.317,92.731a3.785,3.785,0,0,0,1.034-3.81,7.087,7.087,0,0,0-7.338,1.385,12.377,12.377,0,0,0-1.966,2.6c-1.7,2.775-3.206,6.09-2.22,9.192a2.616,2.616,0,0,0,1.2,1.635,3.147,3.147,0,0,0,1.394.218,46.482,46.482,0,0,0,5.606-.345c1.143-.14,2.469-.462,2.911-1.525.58-1.4-.824-2.978-.415-4.434a4.859,4.859,0,0,1,1.2-1.713,2.263,2.263,0,0,0,.706-1.9c-.165-.683-1.212-1.071-1.588-.477" fill="#2c2c2c"/>
    <path id="Path_14" data-name="Path 14" d="M362.036,80.133a15.693,15.693,0,0,0-5.081-.319,2.213,2.213,0,0,0-1.082.246,1.8,1.8,0,0,0-.667.966A4.8,4.8,0,0,0,358,86.907a6.011,6.011,0,0,1,1.733.7c1.437,1.115.521,3.393.793,5.191.3,2.019,2.26,3.714,1.9,5.724-.282,1.584-1.974,2.838-1.7,4.423.285,1.661,2.392,2.16,4.072,2.293a5.113,5.113,0,0,0,2.886-.331,4.463,4.463,0,0,0,1.82-2.636,16.9,16.9,0,0,0,.852-6.362,6.039,6.039,0,0,0-.718-2.808,15.7,15.7,0,0,0-1.676-1.92C364.743,87.435,368.132,81.851,362.036,80.133Z" fill="#2c2c2c"/>
    <path id="Path_15" data-name="Path 15" d="M540,141a2.673,2.673,0,1,0-1.883-.782A2.569,2.569,0,0,0,540,141Zm0,9.8a36.674,36.674,0,0,0,6.033-6.784A10.345,10.345,0,0,0,548,138.6a8.05,8.05,0,0,0-2.317-5.949,8.129,8.129,0,0,0-11.367,0A8.049,8.049,0,0,0,532,138.6a10.359,10.359,0,0,0,1.967,5.418A36.671,36.671,0,0,0,540,150.8Zm0,3.034a1.523,1.523,0,0,1-.533-.1,1.6,1.6,0,0,1-.467-.267,41.152,41.152,0,0,1-7.267-7.984,12.786,12.786,0,0,1-2.4-6.883,10.308,10.308,0,0,1,3.218-7.966,10.837,10.837,0,0,1,14.9,0,10.3,10.3,0,0,1,3.216,7.966,12.786,12.786,0,0,1-2.4,6.884A41.089,41.089,0,0,1,541,153.467a1.6,1.6,0,0,1-.467.267A1.519,1.519,0,0,1,540,153.834Z" transform="translate(-396.692 121)" fill="#ff9f1c"/>
  </g>
</svg>
